<?xml version="1.0" encoding="UTF-8" standalone="no"?>
<!DOCTYPE svg PUBLIC "-//W3C//DTD SVG 1.1//EN"
 "http://www.w3.org/Graphics/SVG/1.1/DTD/svg11.dtd">
<!-- Generated by graphviz version 2.43.0 (0)
 -->
<!-- Title: Amazon Pages: 1 -->
<svg width="1283pt" height="1421pt"
 viewBox="0.00 0.00 1282.50 1421.00" xmlns="http://www.w3.org/2000/svg" xmlns:xlink="http://www.w3.org/1999/xlink">
<g id="graph0" class="graph" transform="scale(1 1) rotate(0) translate(144 1277)">
<title>Amazon</title>
<polygon fill="white" stroke="transparent" points="-144,144 -144,-1277 1138.5,-1277 1138.5,144 -144,144"/>
<text text-anchor="middle" x="497.25" y="-9" font-family="Sans-Serif" font-size="15.00" fill="#2d3436">Amazon</text>
<g id="clust1" class="cluster">
<title>cluster_</title>
<path fill="#e5f5fd" stroke="#aeb6be" d="M121.5,-33C121.5,-33 974.5,-33 974.5,-33 980.5,-33 986.5,-39 986.5,-45 986.5,-45 986.5,-938 986.5,-938 986.5,-944 980.5,-950 974.5,-950 974.5,-950 121.5,-950 121.5,-950 115.5,-950 109.5,-944 109.5,-938 109.5,-938 109.5,-45 109.5,-45 109.5,-39 115.5,-33 121.5,-33"/>
</g>
<!-- f9dcc1ad06b84ccf835e678155cc6de9 -->
<g id="node1" class="node">
<title>f9dcc1ad06b84ccf835e678155cc6de9</title>
<image xlink:href="/home/ryotaro/sd/diagrams/venv/lib/python3.10/site-packages/resources/onprem/network/internet.png" width="101px" height="101px" preserveAspectRatio="xMinYMin meet" x="332" y="-1115"/>
<text text-anchor="middle" x="382.5" y="-999.6" font-family="Sans-Serif" font-size="13.00" fill="#2d3436">Internet</text>
</g>
<!-- 4f38375239da4475ada1b74551e65cab -->
<g id="node2" class="node">
<title>4f38375239da4475ada1b74551e65cab</title>
<image xlink:href="/home/ryotaro/sd/diagrams/venv/lib/python3.10/site-packages/resources/onprem/compute/server.png" width="101px" height="101px" preserveAspectRatio="xMinYMin meet" x="0" y="-924"/>
<text text-anchor="middle" x="50.5" y="-808.6" font-family="Sans-Serif" font-size="13.00" fill="#2d3436">Payment Services</text>
</g>
<!-- f9dcc1ad06b84ccf835e678155cc6de9&#45;&gt;4f38375239da4475ada1b74551e65cab -->
<g id="edge1" class="edge">
<title>f9dcc1ad06b84ccf835e678155cc6de9&#45;&gt;4f38375239da4475ada1b74551e65cab</title>
<path fill="none" stroke="blue" d="M331.71,-1064C238.71,-1064 50.5,-1064 50.5,-1064 50.5,-1064 50.5,-952.01 50.5,-952.01"/>
<polygon fill="blue" stroke="blue" points="54,-952.01 50.5,-942.01 47,-952.01 54,-952.01"/>
</g>
<!-- 7f5a008203b749459fd69b24ab9119b4 -->
<g id="node3" class="node">
<title>7f5a008203b749459fd69b24ab9119b4</title>
<image xlink:href="/home/ryotaro/sd/diagrams/venv/lib/python3.10/site-packages/resources/programming/framework/spring.png" width="101px" height="101px" preserveAspectRatio="xMinYMin meet" x="642" y="-924"/>
<text text-anchor="middle" x="692.5" y="-808.6" font-family="Sans-Serif" font-size="13.00" fill="#2d3436">BFF</text>
</g>
<!-- f9dcc1ad06b84ccf835e678155cc6de9&#45;&gt;7f5a008203b749459fd69b24ab9119b4 -->
<g id="edge2" class="edge">
<title>f9dcc1ad06b84ccf835e678155cc6de9&#45;&gt;7f5a008203b749459fd69b24ab9119b4</title>
<path fill="none" stroke="#7b8894" d="M433.34,-1064C521.29,-1064 692.5,-1064 692.5,-1064 692.5,-1064 692.5,-952.01 692.5,-952.01"/>
<polygon fill="#7b8894" stroke="#7b8894" points="696,-952.01 692.5,-942.01 689,-952.01 696,-952.01"/>
</g>
<!-- 5b5b929e3cd54ae0954a38cd30101960 -->
<g id="node4" class="node">
<title>5b5b929e3cd54ae0954a38cd30101960</title>
<image xlink:href="/home/ryotaro/sd/diagrams/venv/lib/python3.10/site-packages/resources/programming/framework/react.png" width="101px" height="101px" preserveAspectRatio="xMinYMin meet" x="404" y="-924"/>
<text text-anchor="middle" x="454.5" y="-808.6" font-family="Sans-Serif" font-size="13.00" fill="#2d3436">Frontend</text>
</g>
<!-- f9dcc1ad06b84ccf835e678155cc6de9&#45;&gt;5b5b929e3cd54ae0954a38cd30101960 -->
<g id="edge3" class="edge">
<title>f9dcc1ad06b84ccf835e678155cc6de9&#45;&gt;5b5b929e3cd54ae0954a38cd30101960</title>
<path fill="none" stroke="#7b8894" d="M418.5,-995.81C418.5,-995.81 418.5,-952.22 418.5,-952.22"/>
<polygon fill="#7b8894" stroke="#7b8894" points="422,-952.22 418.5,-942.22 415,-952.22 422,-952.22"/>
</g>
<!-- 5f57ca61e9664aa0b9911f0d9ac833c3 -->
<g id="node5" class="node">
<title>5f57ca61e9664aa0b9911f0d9ac833c3</title>
<image xlink:href="/home/ryotaro/sd/diagrams/venv/lib/python3.10/site-packages/resources/programming/framework/spring.png" width="101px" height="101px" preserveAspectRatio="xMinYMin meet" x="832" y="-733"/>
<text text-anchor="middle" x="882.5" y="-617.6" font-family="Sans-Serif" font-size="13.00" fill="#2d3436">Delivery ETA</text>
</g>
<!-- 7f5a008203b749459fd69b24ab9119b4&#45;&gt;5f57ca61e9664aa0b9911f0d9ac833c3 -->
<g id="edge21" class="edge">
<title>7f5a008203b749459fd69b24ab9119b4&#45;&gt;5f57ca61e9664aa0b9911f0d9ac833c3</title>
<path fill="none" stroke="#7b8894" d="M743.42,-873C799.7,-873 882.5,-873 882.5,-873 882.5,-873 882.5,-761.01 882.5,-761.01"/>
<polygon fill="#7b8894" stroke="#7b8894" points="886,-761.01 882.5,-751.01 879,-761.01 886,-761.01"/>
</g>
<!-- 21b0e4f5bbdb4e1bbc0739cb57d0d058 -->
<g id="node6" class="node">
<title>21b0e4f5bbdb4e1bbc0739cb57d0d058</title>
<image xlink:href="/home/ryotaro/sd/diagrams/venv/lib/python3.10/site-packages/resources/programming/framework/spring.png" width="101px" height="101px" preserveAspectRatio="xMinYMin meet" x="694" y="-542"/>
<text text-anchor="middle" x="744.5" y="-426.6" font-family="Sans-Serif" font-size="13.00" fill="#2d3436">Inventry</text>
</g>
<!-- 7f5a008203b749459fd69b24ab9119b4&#45;&gt;21b0e4f5bbdb4e1bbc0739cb57d0d058 -->
<g id="edge20" class="edge">
<title>7f5a008203b749459fd69b24ab9119b4&#45;&gt;21b0e4f5bbdb4e1bbc0739cb57d0d058</title>
<path fill="none" stroke="#7b8894" d="M743.22,-907C753.03,-907 760.33,-907 760.33,-907 760.33,-907 760.33,-570.11 760.33,-570.11"/>
<polygon fill="#7b8894" stroke="#7b8894" points="763.83,-570.11 760.33,-560.11 756.83,-570.11 763.83,-570.11"/>
</g>
<!-- 4046b67f8c514d36a2b1ce5a4b745e90 -->
<g id="node7" class="node">
<title>4046b67f8c514d36a2b1ce5a4b745e90</title>
<image xlink:href="/home/ryotaro/sd/diagrams/venv/lib/python3.10/site-packages/resources/programming/framework/spring.png" width="101px" height="101px" preserveAspectRatio="xMinYMin meet" x="832" y="-351"/>
<text text-anchor="middle" x="882.5" y="-235.6" font-family="Sans-Serif" font-size="13.00" fill="#2d3436">Product</text>
</g>
<!-- 7f5a008203b749459fd69b24ab9119b4&#45;&gt;4046b67f8c514d36a2b1ce5a4b745e90 -->
<g id="edge18" class="edge">
<title>7f5a008203b749459fd69b24ab9119b4&#45;&gt;4046b67f8c514d36a2b1ce5a4b745e90</title>
<path fill="none" stroke="#7b8894" d="M743.2,-839C773.96,-839 807.33,-839 807.33,-839 807.33,-839 807.33,-323 807.33,-323 807.33,-323 821.95,-323 821.95,-323"/>
<polygon fill="#7b8894" stroke="#7b8894" points="821.95,-326.5 831.95,-323 821.95,-319.5 821.95,-326.5"/>
</g>
<!-- da2ad105275a42379ede1fbdc32d7b5a -->
<g id="node14" class="node">
<title>da2ad105275a42379ede1fbdc32d7b5a</title>
<image xlink:href="/home/ryotaro/sd/diagrams/venv/lib/python3.10/site-packages/resources/programming/framework/spring.png" width="101px" height="101px" preserveAspectRatio="xMinYMin meet" x="308" y="-733"/>
<text text-anchor="middle" x="358.5" y="-617.6" font-family="Sans-Serif" font-size="13.00" fill="#2d3436">Cart</text>
</g>
<!-- 7f5a008203b749459fd69b24ab9119b4&#45;&gt;da2ad105275a42379ede1fbdc32d7b5a -->
<g id="edge23" class="edge">
<title>7f5a008203b749459fd69b24ab9119b4&#45;&gt;da2ad105275a42379ede1fbdc32d7b5a</title>
<path fill="none" stroke="#7b8894" d="M675.67,-804.96C675.67,-785.27 675.67,-769 675.67,-769 675.67,-769 382.5,-769 382.5,-769 382.5,-769 382.5,-761.08 382.5,-761.08"/>
<polygon fill="#7b8894" stroke="#7b8894" points="386,-761.08 382.5,-751.08 379,-761.08 386,-761.08"/>
</g>
<!-- eb35cc3bd2734c1d9943d7aa6f079770 -->
<g id="node16" class="node">
<title>eb35cc3bd2734c1d9943d7aa6f079770</title>
<image xlink:href="/home/ryotaro/sd/diagrams/venv/lib/python3.10/site-packages/resources/programming/framework/spring.png" width="101px" height="101px" preserveAspectRatio="xMinYMin meet" x="452" y="-733"/>
<text text-anchor="middle" x="502.5" y="-617.6" font-family="Sans-Serif" font-size="13.00" fill="#2d3436">Wishlist</text>
</g>
<!-- 7f5a008203b749459fd69b24ab9119b4&#45;&gt;eb35cc3bd2734c1d9943d7aa6f079770 -->
<g id="edge22" class="edge">
<title>7f5a008203b749459fd69b24ab9119b4&#45;&gt;eb35cc3bd2734c1d9943d7aa6f079770</title>
<path fill="none" stroke="#7b8894" d="M641.66,-873C593.67,-873 529,-873 529,-873 529,-873 529,-761.01 529,-761.01"/>
<polygon fill="#7b8894" stroke="#7b8894" points="532.5,-761.01 529,-751.01 525.5,-761.01 532.5,-761.01"/>
</g>
<!-- 3ec12a68f2e847fc81eb1250418bf20f -->
<g id="node18" class="node">
<title>3ec12a68f2e847fc81eb1250418bf20f</title>
<image xlink:href="/home/ryotaro/sd/diagrams/venv/lib/python3.10/site-packages/resources/programming/framework/fastapi.png" width="101px" height="101px" preserveAspectRatio="xMinYMin meet" x="642" y="-733"/>
<text text-anchor="middle" x="692.5" y="-617.6" font-family="Sans-Serif" font-size="13.00" fill="#2d3436">Recommendation</text>
</g>
<!-- 7f5a008203b749459fd69b24ab9119b4&#45;&gt;3ec12a68f2e847fc81eb1250418bf20f -->
<g id="edge19" class="edge">
<title>7f5a008203b749459fd69b24ab9119b4&#45;&gt;3ec12a68f2e847fc81eb1250418bf20f</title>
<path fill="none" stroke="#7b8894" d="M709.33,-804.81C709.33,-804.81 709.33,-761.22 709.33,-761.22"/>
<polygon fill="#7b8894" stroke="#7b8894" points="712.83,-761.22 709.33,-751.22 705.83,-761.22 712.83,-761.22"/>
</g>
<!-- 5f57ca61e9664aa0b9911f0d9ac833c3&#45;&gt;21b0e4f5bbdb4e1bbc0739cb57d0d058 -->
<g id="edge4" class="edge">
<title>5f57ca61e9664aa0b9911f0d9ac833c3&#45;&gt;21b0e4f5bbdb4e1bbc0739cb57d0d058</title>
<path fill="none" stroke="#7b8894" d="M831.93,-682C805.12,-682 777.67,-682 777.67,-682 777.67,-682 777.67,-570.01 777.67,-570.01"/>
<polygon fill="#7b8894" stroke="#7b8894" points="781.17,-570.01 777.67,-560.01 774.17,-570.01 781.17,-570.01"/>
</g>
<!-- 5f57ca61e9664aa0b9911f0d9ac833c3&#45;&gt;4046b67f8c514d36a2b1ce5a4b745e90 -->
<g id="edge5" class="edge">
<title>5f57ca61e9664aa0b9911f0d9ac833c3&#45;&gt;4046b67f8c514d36a2b1ce5a4b745e90</title>
<path fill="none" stroke="#7b8894" d="M899.33,-613.76C899.33,-613.76 899.33,-379 899.33,-379"/>
<polygon fill="#7b8894" stroke="#7b8894" points="902.83,-379 899.33,-369 895.83,-379 902.83,-379"/>
</g>
<!-- 21b0e4f5bbdb4e1bbc0739cb57d0d058&#45;&gt;4046b67f8c514d36a2b1ce5a4b745e90 -->
<g id="edge6" class="edge">
<title>21b0e4f5bbdb4e1bbc0739cb57d0d058&#45;&gt;4046b67f8c514d36a2b1ce5a4b745e90</title>
<path fill="none" stroke="#7b8894" d="M795.18,-491C828.39,-491 865.67,-491 865.67,-491 865.67,-491 865.67,-379.01 865.67,-379.01"/>
<polygon fill="#7b8894" stroke="#7b8894" points="869.17,-379.01 865.67,-369.01 862.17,-379.01 869.17,-379.01"/>
</g>
<!-- f3b7dc39a65347e8b7df6a79a26171e7 -->
<g id="node8" class="node">
<title>f3b7dc39a65347e8b7df6a79a26171e7</title>
<image xlink:href="/home/ryotaro/sd/diagrams/venv/lib/python3.10/site-packages/resources/onprem/database/postgresql.png" width="101px" height="101px" preserveAspectRatio="xMinYMin meet" x="688" y="-351"/>
<text text-anchor="middle" x="738.5" y="-235.6" font-family="Sans-Serif" font-size="13.00" fill="#2d3436">DB</text>
</g>
<!-- 21b0e4f5bbdb4e1bbc0739cb57d0d058&#45;&gt;f3b7dc39a65347e8b7df6a79a26171e7 -->
<g id="edge7" class="edge">
<title>21b0e4f5bbdb4e1bbc0739cb57d0d058&#45;&gt;f3b7dc39a65347e8b7df6a79a26171e7</title>
<path fill="none" stroke="#7b8894" d="M741.5,-422.81C741.5,-422.81 741.5,-379.22 741.5,-379.22"/>
<polygon fill="#7b8894" stroke="#7b8894" points="745,-379.22 741.5,-369.22 738,-379.22 745,-379.22"/>
</g>
<!-- 525fc49c53c74a7f96045c3c3a9b6969 -->
<g id="node9" class="node">
<title>525fc49c53c74a7f96045c3c3a9b6969</title>
<image xlink:href="/home/ryotaro/sd/diagrams/venv/lib/python3.10/site-packages/resources/onprem/inmemory/redis.png" width="101px" height="101px" preserveAspectRatio="xMinYMin meet" x="589" y="-160"/>
<text text-anchor="middle" x="639.5" y="-44.6" font-family="Sans-Serif" font-size="13.00" fill="#2d3436">Cache</text>
</g>
<!-- 4046b67f8c514d36a2b1ce5a4b745e90&#45;&gt;525fc49c53c74a7f96045c3c3a9b6969 -->
<g id="edge8" class="edge">
<title>4046b67f8c514d36a2b1ce5a4b745e90&#45;&gt;525fc49c53c74a7f96045c3c3a9b6969</title>
<path fill="none" stroke="#7b8894" d="M855.5,-231.86C855.5,-216.67 855.5,-205 855.5,-205 855.5,-205 669.5,-205 669.5,-205 669.5,-205 669.5,-188.14 669.5,-188.14"/>
<polygon fill="#7b8894" stroke="#7b8894" points="673,-188.14 669.5,-178.14 666,-188.14 673,-188.14"/>
</g>
<!-- 68fe4d0e9bd14276ba6a5b8d91d6e74e -->
<g id="node10" class="node">
<title>68fe4d0e9bd14276ba6a5b8d91d6e74e</title>
<image xlink:href="/home/ryotaro/sd/diagrams/venv/lib/python3.10/site-packages/resources/onprem/database/mongodb.png" width="101px" height="101px" preserveAspectRatio="xMinYMin meet" x="733" y="-160"/>
<text text-anchor="middle" x="783.5" y="-44.6" font-family="Sans-Serif" font-size="13.00" fill="#2d3436">DB</text>
</g>
<!-- 4046b67f8c514d36a2b1ce5a4b745e90&#45;&gt;68fe4d0e9bd14276ba6a5b8d91d6e74e -->
<g id="edge9" class="edge">
<title>4046b67f8c514d36a2b1ce5a4b745e90&#45;&gt;68fe4d0e9bd14276ba6a5b8d91d6e74e</title>
<path fill="none" stroke="#7b8894" d="M831.78,-277C824.64,-277 819.67,-277 819.67,-277 819.67,-277 819.67,-188.11 819.67,-188.11"/>
<polygon fill="#7b8894" stroke="#7b8894" points="823.17,-188.11 819.67,-178.11 816.17,-188.11 823.17,-188.11"/>
</g>
<!-- ff8df97d86884d269536fdb7bfae0b61 -->
<g id="node11" class="node">
<title>ff8df97d86884d269536fdb7bfae0b61</title>
<image xlink:href="/home/ryotaro/sd/diagrams/venv/lib/python3.10/site-packages/resources/elastic/elasticsearch/elasticsearch.png" width="101px" height="101px" preserveAspectRatio="xMinYMin meet" x="877" y="-160"/>
<text text-anchor="middle" x="927.5" y="-44.6" font-family="Sans-Serif" font-size="13.00" fill="#2d3436">Search</text>
</g>
<!-- 4046b67f8c514d36a2b1ce5a4b745e90&#45;&gt;ff8df97d86884d269536fdb7bfae0b61 -->
<g id="edge10" class="edge">
<title>4046b67f8c514d36a2b1ce5a4b745e90&#45;&gt;ff8df97d86884d269536fdb7bfae0b61</title>
<path fill="none" stroke="#7b8894" d="M905,-231.81C905,-231.81 905,-188.22 905,-188.22"/>
<polygon fill="#7b8894" stroke="#7b8894" points="908.5,-188.22 905,-178.22 901.5,-188.22 908.5,-188.22"/>
</g>
<!-- 7762af0cf5f14729a15dc71abcb97e77 -->
<g id="node12" class="node">
<title>7762af0cf5f14729a15dc71abcb97e77</title>
<image xlink:href="/home/ryotaro/sd/diagrams/venv/lib/python3.10/site-packages/resources/programming/framework/spring.png" width="101px" height="101px" preserveAspectRatio="xMinYMin meet" x="406" y="-542"/>
<text text-anchor="middle" x="456.5" y="-426.6" font-family="Sans-Serif" font-size="13.00" fill="#2d3436">User</text>
</g>
<!-- ebee9b8d84c940cc97c29048cec30c31 -->
<g id="node13" class="node">
<title>ebee9b8d84c940cc97c29048cec30c31</title>
<image xlink:href="/home/ryotaro/sd/diagrams/venv/lib/python3.10/site-packages/resources/onprem/database/postgresql.png" width="101px" height="101px" preserveAspectRatio="xMinYMin meet" x="406" y="-351"/>
<text text-anchor="middle" x="456.5" y="-235.6" font-family="Sans-Serif" font-size="13.00" fill="#2d3436">DB</text>
</g>
<!-- 7762af0cf5f14729a15dc71abcb97e77&#45;&gt;ebee9b8d84c940cc97c29048cec30c31 -->
<g id="edge11" class="edge">
<title>7762af0cf5f14729a15dc71abcb97e77&#45;&gt;ebee9b8d84c940cc97c29048cec30c31</title>
<path fill="none" stroke="#7b8894" d="M456.5,-422.81C456.5,-422.81 456.5,-379.22 456.5,-379.22"/>
<polygon fill="#7b8894" stroke="#7b8894" points="460,-379.22 456.5,-369.22 453,-379.22 460,-379.22"/>
</g>
<!-- da2ad105275a42379ede1fbdc32d7b5a&#45;&gt;21b0e4f5bbdb4e1bbc0739cb57d0d058 -->
<g id="edge12" class="edge">
<title>da2ad105275a42379ede1fbdc32d7b5a&#45;&gt;21b0e4f5bbdb4e1bbc0739cb57d0d058</title>
<path fill="none" stroke="#7b8894" d="M377.33,-613.86C377.33,-598.67 377.33,-587 377.33,-587 377.33,-587 718.5,-587 718.5,-587 718.5,-587 718.5,-570.14 718.5,-570.14"/>
<polygon fill="#7b8894" stroke="#7b8894" points="722,-570.14 718.5,-560.14 715,-570.14 722,-570.14"/>
</g>
<!-- da2ad105275a42379ede1fbdc32d7b5a&#45;&gt;7762af0cf5f14729a15dc71abcb97e77 -->
<g id="edge14" class="edge">
<title>da2ad105275a42379ede1fbdc32d7b5a&#45;&gt;7762af0cf5f14729a15dc71abcb97e77</title>
<path fill="none" stroke="#7b8894" d="M391.67,-613.91C391.67,-558.96 391.67,-491 391.67,-491 391.67,-491 395.73,-491 395.73,-491"/>
<polygon fill="#7b8894" stroke="#7b8894" points="395.73,-494.5 405.73,-491 395.73,-487.5 395.73,-494.5"/>
</g>
<!-- 58b45900dca94bc2b432cfe426ac0284 -->
<g id="node15" class="node">
<title>58b45900dca94bc2b432cfe426ac0284</title>
<image xlink:href="/home/ryotaro/sd/diagrams/venv/lib/python3.10/site-packages/resources/onprem/database/cassandra.png" width="101px" height="101px" preserveAspectRatio="xMinYMin meet" x="262" y="-542"/>
<text text-anchor="middle" x="312.5" y="-426.6" font-family="Sans-Serif" font-size="13.00" fill="#2d3436">DB</text>
</g>
<!-- da2ad105275a42379ede1fbdc32d7b5a&#45;&gt;58b45900dca94bc2b432cfe426ac0284 -->
<g id="edge13" class="edge">
<title>da2ad105275a42379ede1fbdc32d7b5a&#45;&gt;58b45900dca94bc2b432cfe426ac0284</title>
<path fill="none" stroke="#7b8894" d="M335.5,-613.81C335.5,-613.81 335.5,-570.22 335.5,-570.22"/>
<polygon fill="#7b8894" stroke="#7b8894" points="339,-570.22 335.5,-560.22 332,-570.22 339,-570.22"/>
</g>
<!-- eb35cc3bd2734c1d9943d7aa6f079770&#45;&gt;21b0e4f5bbdb4e1bbc0739cb57d0d058 -->
<g id="edge15" class="edge">
<title>eb35cc3bd2734c1d9943d7aa6f079770&#45;&gt;21b0e4f5bbdb4e1bbc0739cb57d0d058</title>
<path fill="none" stroke="#7b8894" d="M521.33,-614C521.33,-605.65 521.33,-600 521.33,-600 521.33,-600 730.75,-600 730.75,-600 730.75,-600 730.75,-570.21 730.75,-570.21"/>
<polygon fill="#7b8894" stroke="#7b8894" points="734.25,-570.21 730.75,-560.21 727.25,-570.21 734.25,-570.21"/>
</g>
<!-- eb35cc3bd2734c1d9943d7aa6f079770&#45;&gt;7762af0cf5f14729a15dc71abcb97e77 -->
<g id="edge16" class="edge">
<title>eb35cc3bd2734c1d9943d7aa6f079770&#45;&gt;7762af0cf5f14729a15dc71abcb97e77</title>
<path fill="none" stroke="#7b8894" d="M479.5,-613.81C479.5,-613.81 479.5,-570.22 479.5,-570.22"/>
<polygon fill="#7b8894" stroke="#7b8894" points="483,-570.22 479.5,-560.22 476,-570.22 483,-570.22"/>
</g>
<!-- cb1e06f347b6413b947387a9193394e4 -->
<g id="node17" class="node">
<title>cb1e06f347b6413b947387a9193394e4</title>
<image xlink:href="/home/ryotaro/sd/diagrams/venv/lib/python3.10/site-packages/resources/onprem/database/cassandra.png" width="101px" height="101px" preserveAspectRatio="xMinYMin meet" x="550" y="-542"/>
<text text-anchor="middle" x="600.5" y="-426.6" font-family="Sans-Serif" font-size="13.00" fill="#2d3436">DB</text>
</g>
<!-- eb35cc3bd2734c1d9943d7aa6f079770&#45;&gt;cb1e06f347b6413b947387a9193394e4 -->
<g id="edge17" class="edge">
<title>eb35cc3bd2734c1d9943d7aa6f079770&#45;&gt;cb1e06f347b6413b947387a9193394e4</title>
<path fill="none" stroke="#7b8894" d="M535.67,-613.91C535.67,-558.96 535.67,-491 535.67,-491 535.67,-491 539.73,-491 539.73,-491"/>
<polygon fill="#7b8894" stroke="#7b8894" points="539.73,-494.5 549.73,-491 539.73,-487.5 539.73,-494.5"/>
</g>
<!-- d5581ceef2a34dde9645814c0bb40740 -->
<g id="node19" class="node">
<title>d5581ceef2a34dde9645814c0bb40740</title>
<image xlink:href="/home/ryotaro/sd/diagrams/venv/lib/python3.10/site-packages/resources/programming/framework/spring.png" width="101px" height="101px" preserveAspectRatio="xMinYMin meet" x="260" y="-924"/>
<text text-anchor="middle" x="310.5" y="-808.6" font-family="Sans-Serif" font-size="13.00" fill="#2d3436">Payment</text>
</g>
<!-- d5581ceef2a34dde9645814c0bb40740&#45;&gt;f9dcc1ad06b84ccf835e678155cc6de9 -->
<g id="edge24" class="edge">
<title>d5581ceef2a34dde9645814c0bb40740&#45;&gt;f9dcc1ad06b84ccf835e678155cc6de9</title>
<path fill="none" stroke="blue" d="M346.5,-942.19C346.5,-942.19 346.5,-985.78 346.5,-985.78"/>
<polygon fill="blue" stroke="blue" points="343,-985.78 346.5,-995.78 350,-985.78 343,-985.78"/>
</g>
<!-- d5581ceef2a34dde9645814c0bb40740&#45;&gt;21b0e4f5bbdb4e1bbc0739cb57d0d058 -->
<g id="edge25" class="edge">
<title>d5581ceef2a34dde9645814c0bb40740&#45;&gt;21b0e4f5bbdb4e1bbc0739cb57d0d058</title>
<path fill="none" stroke="#7b8894" d="M292.67,-804.94C292.67,-716.25 292.67,-573 292.67,-573 292.67,-573 706.25,-573 706.25,-573 706.25,-573 706.25,-570.27 706.25,-570.27"/>
<polygon fill="#7b8894" stroke="#7b8894" points="709.75,-570.27 706.25,-560.27 702.75,-570.27 709.75,-570.27"/>
</g>
<!-- d5581ceef2a34dde9645814c0bb40740&#45;&gt;7762af0cf5f14729a15dc71abcb97e77 -->
<g id="edge26" class="edge">
<title>d5581ceef2a34dde9645814c0bb40740&#45;&gt;7762af0cf5f14729a15dc71abcb97e77</title>
<path fill="none" stroke="#7b8894" d="M343.33,-804.92C343.33,-794.42 343.33,-787 343.33,-787 343.33,-787 430.5,-787 430.5,-787 430.5,-787 430.5,-570.04 430.5,-570.04"/>
<polygon fill="#7b8894" stroke="#7b8894" points="434,-570.04 430.5,-560.04 427,-570.04 434,-570.04"/>
</g>
<!-- d5581ceef2a34dde9645814c0bb40740&#45;&gt;da2ad105275a42379ede1fbdc32d7b5a -->
<g id="edge27" class="edge">
<title>d5581ceef2a34dde9645814c0bb40740&#45;&gt;da2ad105275a42379ede1fbdc32d7b5a</title>
<path fill="none" stroke="#7b8894" d="M325.67,-804.81C325.67,-804.81 325.67,-761.22 325.67,-761.22"/>
<polygon fill="#7b8894" stroke="#7b8894" points="329.17,-761.22 325.67,-751.22 322.17,-761.22 329.17,-761.22"/>
</g>
<!-- 65ca431360904595852aec3b8b5ef1c0 -->
<g id="node20" class="node">
<title>65ca431360904595852aec3b8b5ef1c0</title>
<image xlink:href="/home/ryotaro/sd/diagrams/venv/lib/python3.10/site-packages/resources/programming/framework/spring.png" width="101px" height="101px" preserveAspectRatio="xMinYMin meet" x="118" y="-733"/>
<text text-anchor="middle" x="168.5" y="-617.6" font-family="Sans-Serif" font-size="13.00" fill="#2d3436">Order history</text>
</g>
<!-- d5581ceef2a34dde9645814c0bb40740&#45;&gt;65ca431360904595852aec3b8b5ef1c0 -->
<g id="edge28" class="edge">
<title>d5581ceef2a34dde9645814c0bb40740&#45;&gt;65ca431360904595852aec3b8b5ef1c0</title>
<path fill="none" stroke="#7b8894" d="M277.33,-804.91C277.33,-749.96 277.33,-682 277.33,-682 277.33,-682 229.09,-682 229.09,-682"/>
<polygon fill="#7b8894" stroke="#7b8894" points="229.09,-678.5 219.09,-682 229.09,-685.5 229.09,-678.5"/>
</g>
<!-- 28f4baf0068a4c7998c6621664bf5589 -->
<g id="node21" class="node">
<title>28f4baf0068a4c7998c6621664bf5589</title>
<image xlink:href="/home/ryotaro/sd/diagrams/venv/lib/python3.10/site-packages/resources/onprem/database/cassandra.png" width="101px" height="101px" preserveAspectRatio="xMinYMin meet" x="118" y="-542"/>
<text text-anchor="middle" x="168.5" y="-426.6" font-family="Sans-Serif" font-size="13.00" fill="#2d3436">DB</text>
</g>
<!-- 65ca431360904595852aec3b8b5ef1c0&#45;&gt;28f4baf0068a4c7998c6621664bf5589 -->
<g id="edge29" class="edge">
<title>65ca431360904595852aec3b8b5ef1c0&#45;&gt;28f4baf0068a4c7998c6621664bf5589</title>
<path fill="none" stroke="#7b8894" d="M168.5,-613.81C168.5,-613.81 168.5,-570.22 168.5,-570.22"/>
<polygon fill="#7b8894" stroke="#7b8894" points="172,-570.22 168.5,-560.22 165,-570.22 172,-570.22"/>
</g>
</g>
</svg>
