<?xml version="1.0" encoding="UTF-8" standalone="no"?>
<!DOCTYPE svg PUBLIC "-//W3C//DTD SVG 1.1//EN"
 "http://www.w3.org/Graphics/SVG/1.1/DTD/svg11.dtd">
<!-- Generated by graphviz version 2.43.0 (0)
 -->
<!-- Title: GoogleMaps Pages: 1 -->
<svg width="1622pt" height="2011pt"
 viewBox="0.00 0.00 1621.50 2011.00" xmlns="http://www.w3.org/2000/svg" xmlns:xlink="http://www.w3.org/1999/xlink">
<g id="graph0" class="graph" transform="scale(1 1) rotate(0) translate(144 1867)">
<title>GoogleMaps</title>
<polygon fill="white" stroke="transparent" points="-144,144 -144,-1867 1477.5,-1867 1477.5,144 -144,144"/>
<text text-anchor="middle" x="666.75" y="-9" font-family="Sans-Serif" font-size="15.00" fill="#2d3436">GoogleMaps</text>
<g id="clust1" class="cluster">
<title>cluster_System boundary</title>
<path fill="#e5f5fd" stroke="#aeb6be" d="M265.5,-33C265.5,-33 1313.5,-33 1313.5,-33 1319.5,-33 1325.5,-39 1325.5,-45 1325.5,-45 1325.5,-1520.5 1325.5,-1520.5 1325.5,-1526.5 1319.5,-1532.5 1313.5,-1532.5 1313.5,-1532.5 265.5,-1532.5 265.5,-1532.5 259.5,-1532.5 253.5,-1526.5 253.5,-1520.5 253.5,-1520.5 253.5,-45 253.5,-45 253.5,-39 259.5,-33 265.5,-33"/>
<text text-anchor="middle" x="308.5" y="-1518.9" font-family="Sans-Serif" font-size="12.00" fill="#2d3436">System boundary</text>
</g>
<g id="clust2" class="cluster">
<title>cluster_Map servie
Draw maps</title>
<path fill="#ebf3e7" stroke="#aeb6be" d="M310.5,-908C310.5,-908 1124.5,-908 1124.5,-908 1130.5,-908 1136.5,-914 1136.5,-920 1136.5,-920 1136.5,-1304 1136.5,-1304 1136.5,-1310 1130.5,-1316 1124.5,-1316 1124.5,-1316 310.5,-1316 310.5,-1316 304.5,-1316 298.5,-1310 298.5,-1304 298.5,-1304 298.5,-920 298.5,-920 298.5,-914 304.5,-908 310.5,-908"/>
<text text-anchor="middle" x="337" y="-1302.4" font-family="Sans-Serif" font-size="12.00" fill="#2d3436">Map servie</text>
<text text-anchor="middle" x="337" y="-1289.4" font-family="Sans-Serif" font-size="12.00" fill="#2d3436">Draw maps</text>
</g>
<g id="clust3" class="cluster">
<title>cluster_Database (data for drawing maps)</title>
<path fill="#ece8f6" stroke="#aeb6be" d="M598.5,-922.5C598.5,-922.5 980.5,-922.5 980.5,-922.5 986.5,-922.5 992.5,-928.5 992.5,-934.5 992.5,-934.5 992.5,-1084.5 992.5,-1084.5 992.5,-1090.5 986.5,-1096.5 980.5,-1096.5 980.5,-1096.5 598.5,-1096.5 598.5,-1096.5 592.5,-1096.5 586.5,-1090.5 586.5,-1084.5 586.5,-1084.5 586.5,-934.5 586.5,-934.5 586.5,-928.5 592.5,-922.5 598.5,-922.5"/>
<text text-anchor="middle" x="685" y="-1082.9" font-family="Sans-Serif" font-size="12.00" fill="#2d3436">Database (data for drawing maps)</text>
</g>
<g id="clust4" class="cluster">
<title>cluster_Graph service
Find the distance and ETA of two points</title>
<path fill="#ebf3e7" stroke="#aeb6be" d="M762.5,-41C762.5,-41 1296.5,-41 1296.5,-41 1302.5,-41 1308.5,-47 1308.5,-53 1308.5,-53 1308.5,-868 1308.5,-868 1308.5,-874 1302.5,-880 1296.5,-880 1296.5,-880 762.5,-880 762.5,-880 756.5,-880 750.5,-874 750.5,-868 750.5,-868 750.5,-53 750.5,-53 750.5,-47 756.5,-41 762.5,-41"/>
<text text-anchor="middle" x="865" y="-866.4" font-family="Sans-Serif" font-size="12.00" fill="#2d3436">Graph service</text>
<text text-anchor="middle" x="865" y="-853.4" font-family="Sans-Serif" font-size="12.00" fill="#2d3436">Find the distance and ETA of two points</text>
</g>
<g id="clust5" class="cluster">
<title>cluster_Database</title>
<path fill="#ece8f6" stroke="#aeb6be" d="M770.5,-49C770.5,-49 1152.5,-49 1152.5,-49 1158.5,-49 1164.5,-55 1164.5,-61 1164.5,-61 1164.5,-211 1164.5,-211 1164.5,-217 1158.5,-223 1152.5,-223 1152.5,-223 770.5,-223 770.5,-223 764.5,-223 758.5,-217 758.5,-211 758.5,-211 758.5,-61 758.5,-61 758.5,-55 764.5,-49 770.5,-49"/>
<text text-anchor="middle" x="792.5" y="-209.4" font-family="Sans-Serif" font-size="12.00" fill="#2d3436">Database</text>
</g>
<!-- b0c9fad447614384a9a890afa6db6272 -->
<g id="node1" class="node">
<title>b0c9fad447614384a9a890afa6db6272</title>
<image xlink:href="/home/ryotaro/sd/diagrams/venv/lib/python3.10/site-packages/resources/onprem/network/internet.png" width="101px" height="101px" preserveAspectRatio="xMinYMin meet" x="378" y="-1705"/>
<text text-anchor="middle" x="428.5" y="-1589.6" font-family="Sans-Serif" font-size="13.00" fill="#2d3436">Internet</text>
</g>
<!-- 9df686ba338a4b408f0835f976845e31 -->
<g id="node2" class="node">
<title>9df686ba338a4b408f0835f976845e31</title>
<image xlink:href="/home/ryotaro/sd/diagrams/venv/lib/python3.10/site-packages/resources/generic/storage/storage.png" width="101px" height="101px" preserveAspectRatio="xMinYMin meet" x="0" y="-1485.5"/>
<text text-anchor="middle" x="50.5" y="-1369.6" font-family="Sans-Serif" font-size="13.00" fill="#2d3436">Data Provider</text>
<text text-anchor="middle" x="50.5" y="-1355.6" font-family="Sans-Serif" font-size="13.00" fill="#2d3436">(e.g., map, traffic, weather)</text>
</g>
<!-- b0c9fad447614384a9a890afa6db6272&#45;&gt;9df686ba338a4b408f0835f976845e31 -->
<g id="edge7" class="edge">
<title>b0c9fad447614384a9a890afa6db6272&#45;&gt;9df686ba338a4b408f0835f976845e31</title>
<path fill="none" stroke="brown" d="M377.91,-1654C274.91,-1654 50.5,-1654 50.5,-1654 50.5,-1654 50.5,-1528.11 50.5,-1528.11"/>
<polygon fill="brown" stroke="brown" points="54,-1528.11 50.5,-1518.11 47,-1528.11 54,-1528.11"/>
<text text-anchor="middle" x="106.5" y="-1548.6" font-family="Sans-Serif" font-size="13.00" fill="#2d3436">Get the lastest data</text>
</g>
<!-- e7cbd83fa3d14167b32a62710c38cce6 -->
<g id="node3" class="node">
<title>e7cbd83fa3d14167b32a62710c38cce6</title>
<image xlink:href="/home/ryotaro/sd/diagrams/venv/lib/python3.10/site-packages/resources/aws/network/cloudfront.png" width="101px" height="101px" preserveAspectRatio="xMinYMin meet" x="144" y="-1485.5"/>
<text text-anchor="middle" x="194.5" y="-1369.6" font-family="Sans-Serif" font-size="13.00" fill="#2d3436">CDN</text>
<text text-anchor="middle" x="194.5" y="-1355.6" font-family="Sans-Serif" font-size="13.00" fill="#2d3436">Static contents</text>
</g>
<!-- b0c9fad447614384a9a890afa6db6272&#45;&gt;e7cbd83fa3d14167b32a62710c38cce6 -->
<g id="edge1" class="edge">
<title>b0c9fad447614384a9a890afa6db6272&#45;&gt;e7cbd83fa3d14167b32a62710c38cce6</title>
<path fill="none" stroke="#7b8894" d="M381.67,-1585.64C381.67,-1548.42 381.67,-1510 381.67,-1510 381.67,-1510 255.15,-1510 255.15,-1510"/>
<polygon fill="#7b8894" stroke="#7b8894" points="255.15,-1506.5 245.15,-1510 255.15,-1513.5 255.15,-1506.5"/>
</g>
<!-- 046dfbf224494718963db4378f06a287 -->
<g id="node4" class="node">
<title>046dfbf224494718963db4378f06a287</title>
<image xlink:href="/home/ryotaro/sd/diagrams/venv/lib/python3.10/site-packages/resources/onprem/network/tomcat.png" width="101px" height="71.4102px" preserveAspectRatio="xMinYMin meet" x="288" y="-1470.71"/>
<text text-anchor="middle" x="338.5" y="-1370.1" font-family="Sans-Serif" font-size="13.00" fill="#2d3436">Mobile BFF</text>
</g>
<!-- b0c9fad447614384a9a890afa6db6272&#45;&gt;046dfbf224494718963db4378f06a287 -->
<g id="edge2" class="edge">
<title>b0c9fad447614384a9a890afa6db6272&#45;&gt;046dfbf224494718963db4378f06a287</title>
<path fill="none" stroke="#7b8894" d="M385.33,-1585.95C385.33,-1585.95 385.33,-1513.78 385.33,-1513.78"/>
<polygon fill="#7b8894" stroke="#7b8894" points="388.83,-1513.78 385.33,-1503.78 381.83,-1513.78 388.83,-1513.78"/>
</g>
<!-- cc410da32f4544a89951014db9b28aba -->
<g id="node5" class="node">
<title>cc410da32f4544a89951014db9b28aba</title>
<image xlink:href="/home/ryotaro/sd/diagrams/venv/lib/python3.10/site-packages/resources/programming/framework/react.png" width="101px" height="101px" preserveAspectRatio="xMinYMin meet" x="432" y="-1485.5"/>
<text text-anchor="middle" x="482.5" y="-1370.1" font-family="Sans-Serif" font-size="13.00" fill="#2d3436">Frontend</text>
</g>
<!-- b0c9fad447614384a9a890afa6db6272&#45;&gt;cc410da32f4544a89951014db9b28aba -->
<g id="edge3" class="edge">
<title>b0c9fad447614384a9a890afa6db6272&#45;&gt;cc410da32f4544a89951014db9b28aba</title>
<path fill="none" stroke="#7b8894" d="M455.5,-1585.95C455.5,-1585.95 455.5,-1513.78 455.5,-1513.78"/>
<polygon fill="#7b8894" stroke="#7b8894" points="459,-1513.78 455.5,-1503.78 452,-1513.78 459,-1513.78"/>
</g>
<!-- 724be9d3398b4443b0861a6a7e1f05c4 -->
<g id="node6" class="node">
<title>724be9d3398b4443b0861a6a7e1f05c4</title>
<image xlink:href="/home/ryotaro/sd/diagrams/venv/lib/python3.10/site-packages/resources/onprem/network/tomcat.png" width="101px" height="71.4102px" preserveAspectRatio="xMinYMin meet" x="576" y="-1470.71"/>
<text text-anchor="middle" x="626.5" y="-1370.1" font-family="Sans-Serif" font-size="13.00" fill="#2d3436">Browser BFF</text>
</g>
<!-- b0c9fad447614384a9a890afa6db6272&#45;&gt;724be9d3398b4443b0861a6a7e1f05c4 -->
<g id="edge4" class="edge">
<title>b0c9fad447614384a9a890afa6db6272&#45;&gt;724be9d3398b4443b0861a6a7e1f05c4</title>
<path fill="none" stroke="#7b8894" d="M479.23,-1631C537.9,-1631 626.5,-1631 626.5,-1631 626.5,-1631 626.5,-1513.55 626.5,-1513.55"/>
<polygon fill="#7b8894" stroke="#7b8894" points="630,-1513.55 626.5,-1503.55 623,-1513.55 630,-1513.55"/>
</g>
<!-- 0740db8580f24242829a0c68eb39cbd7 -->
<g id="node7" class="node">
<title>0740db8580f24242829a0c68eb39cbd7</title>
<image xlink:href="/home/ryotaro/sd/diagrams/venv/lib/python3.10/site-packages/resources/onprem/network/tomcat.png" width="101px" height="71.4102px" preserveAspectRatio="xMinYMin meet" x="529" y="-1241.21"/>
<text text-anchor="middle" x="579.5" y="-1140.6" font-family="Sans-Serif" font-size="13.00" fill="#2d3436">Web API</text>
</g>
<!-- 046dfbf224494718963db4378f06a287&#45;&gt;0740db8580f24242829a0c68eb39cbd7 -->
<g id="edge14" class="edge">
<title>046dfbf224494718963db4378f06a287&#45;&gt;0740db8580f24242829a0c68eb39cbd7</title>
<path fill="none" stroke="#7b8894" d="M348,-1366.36C348,-1306.1 348,-1228 348,-1228 348,-1228 518.98,-1228 518.98,-1228"/>
<polygon fill="#7b8894" stroke="#7b8894" points="518.98,-1231.5 528.98,-1228 518.98,-1224.5 518.98,-1231.5"/>
</g>
<!-- f7587382a3db416493033314a7a94dc2 -->
<g id="node15" class="node">
<title>f7587382a3db416493033314a7a94dc2</title>
<image xlink:href="/home/ryotaro/sd/diagrams/venv/lib/python3.10/site-packages/resources/onprem/network/tomcat.png" width="101px" height="71.4102px" preserveAspectRatio="xMinYMin meet" x="1055" y="-377.705"/>
<text text-anchor="middle" x="1105.5" y="-277.1" font-family="Sans-Serif" font-size="13.00" fill="#2d3436">Web API</text>
</g>
<!-- 046dfbf224494718963db4378f06a287&#45;&gt;f7587382a3db416493033314a7a94dc2 -->
<g id="edge22" class="edge">
<title>046dfbf224494718963db4378f06a287&#45;&gt;f7587382a3db416493033314a7a94dc2</title>
<path fill="none" stroke="#7b8894" d="M297.5,-1366.21C297.5,-1126.44 297.5,-342 297.5,-342 297.5,-342 1044.96,-342 1044.96,-342"/>
<polygon fill="#7b8894" stroke="#7b8894" points="1044.96,-345.5 1054.96,-342 1044.96,-338.5 1044.96,-345.5"/>
</g>
<!-- 724be9d3398b4443b0861a6a7e1f05c4&#45;&gt;0740db8580f24242829a0c68eb39cbd7 -->
<g id="edge15" class="edge">
<title>724be9d3398b4443b0861a6a7e1f05c4&#45;&gt;0740db8580f24242829a0c68eb39cbd7</title>
<path fill="none" stroke="#7b8894" d="M603,-1366.45C603,-1366.45 603,-1284.09 603,-1284.09"/>
<polygon fill="#7b8894" stroke="#7b8894" points="606.5,-1284.09 603,-1274.09 599.5,-1284.09 606.5,-1284.09"/>
</g>
<!-- 724be9d3398b4443b0861a6a7e1f05c4&#45;&gt;f7587382a3db416493033314a7a94dc2 -->
<g id="edge23" class="edge">
<title>724be9d3398b4443b0861a6a7e1f05c4&#45;&gt;f7587382a3db416493033314a7a94dc2</title>
<path fill="none" stroke="#7b8894" d="M677.34,-1435C807.39,-1435 1142,-1435 1142,-1435 1142,-1435 1142,-420.79 1142,-420.79"/>
<polygon fill="#7b8894" stroke="#7b8894" points="1145.5,-420.79 1142,-410.79 1138.5,-420.79 1145.5,-420.79"/>
</g>
<!-- 0ff4482f0f2c4db3b60946105ba91c73 -->
<g id="node8" class="node">
<title>0ff4482f0f2c4db3b60946105ba91c73</title>
<image xlink:href="/home/ryotaro/sd/diagrams/venv/lib/python3.10/site-packages/resources/onprem/queue/kafka.png" width="101px" height="101px" preserveAspectRatio="xMinYMin meet" x="307" y="-1049.5"/>
<text text-anchor="middle" x="357.5" y="-934.1" font-family="Sans-Serif" font-size="13.00" fill="#2d3436">Update requests</text>
</g>
<!-- 0740db8580f24242829a0c68eb39cbd7&#45;&gt;0ff4482f0f2c4db3b60946105ba91c73 -->
<g id="edge5" class="edge">
<title>0740db8580f24242829a0c68eb39cbd7&#45;&gt;0ff4482f0f2c4db3b60946105ba91c73</title>
<path fill="none" stroke="#7b8894" d="M528.69,-1182C474.18,-1182 395.33,-1182 395.33,-1182 395.33,-1182 395.33,-1077.66 395.33,-1077.66"/>
<polygon fill="#7b8894" stroke="#7b8894" points="398.83,-1077.66 395.33,-1067.66 391.83,-1077.66 398.83,-1077.66"/>
</g>
<!-- 7b2b058e1ae64ab9ba0ab81a896626a0 -->
<g id="node10" class="node">
<title>7b2b058e1ae64ab9ba0ab81a896626a0</title>
<image xlink:href="/home/ryotaro/sd/diagrams/venv/lib/python3.10/site-packages/resources/onprem/inmemory/redis.png" width="101px" height="101px" preserveAspectRatio="xMinYMin meet" x="451" y="-1049.5"/>
<text text-anchor="middle" x="501.5" y="-934.1" font-family="Sans-Serif" font-size="13.00" fill="#2d3436">Cache</text>
</g>
<!-- 0740db8580f24242829a0c68eb39cbd7&#45;&gt;7b2b058e1ae64ab9ba0ab81a896626a0 -->
<g id="edge8" class="edge">
<title>0740db8580f24242829a0c68eb39cbd7&#45;&gt;7b2b058e1ae64ab9ba0ab81a896626a0</title>
<path fill="none" stroke="#7b8894" d="M536.67,-1136.74C536.67,-1136.74 536.67,-1077.81 536.67,-1077.81"/>
<polygon fill="#7b8894" stroke="#7b8894" points="540.17,-1077.81 536.67,-1067.81 533.17,-1077.81 540.17,-1077.81"/>
</g>
<!-- d36454ca6c5144f4b026710c9451f43c -->
<g id="node11" class="node">
<title>d36454ca6c5144f4b026710c9451f43c</title>
<image xlink:href="/home/ryotaro/sd/diagrams/venv/lib/python3.10/site-packages/resources/elastic/elasticsearch/elasticsearch.png" width="101px" height="101px" preserveAspectRatio="xMinYMin meet" x="1027" y="-1049.5"/>
<text text-anchor="middle" x="1077.5" y="-933.6" font-family="Sans-Serif" font-size="13.00" fill="#2d3436">Search engine</text>
<text text-anchor="middle" x="1077.5" y="-919.6" font-family="Sans-Serif" font-size="13.00" fill="#2d3436">Query addresses by names</text>
</g>
<!-- 0740db8580f24242829a0c68eb39cbd7&#45;&gt;d36454ca6c5144f4b026710c9451f43c -->
<g id="edge12" class="edge">
<title>0740db8580f24242829a0c68eb39cbd7&#45;&gt;d36454ca6c5144f4b026710c9451f43c</title>
<path fill="none" stroke="#7b8894" d="M612.5,-1136.67C612.5,-1104.85 612.5,-1074 612.5,-1074 612.5,-1074 1016.85,-1074 1016.85,-1074"/>
<polygon fill="#7b8894" stroke="#7b8894" points="1016.85,-1077.5 1026.85,-1074 1016.85,-1070.5 1016.85,-1077.5"/>
</g>
<!-- 0240209279fd4e739d0acb41f2bdb6f5 -->
<g id="node12" class="node">
<title>0240209279fd4e739d0acb41f2bdb6f5</title>
<image xlink:href="/home/ryotaro/sd/diagrams/venv/lib/python3.10/site-packages/resources/onprem/database/cassandra.png" width="101px" height="101px" preserveAspectRatio="xMinYMin meet" x="883" y="-1049.5"/>
<text text-anchor="middle" x="933.5" y="-934.1" font-family="Sans-Serif" font-size="13.00" fill="#2d3436">Town</text>
</g>
<!-- 0740db8580f24242829a0c68eb39cbd7&#45;&gt;0240209279fd4e739d0acb41f2bdb6f5 -->
<g id="edge16" class="edge">
<title>0740db8580f24242829a0c68eb39cbd7&#45;&gt;0240209279fd4e739d0acb41f2bdb6f5</title>
<path fill="none" stroke="#7b8894" d="M630.34,-1228C724.53,-1228 916.67,-1228 916.67,-1228 916.67,-1228 916.67,-1077.71 916.67,-1077.71"/>
<polygon fill="#7b8894" stroke="#7b8894" points="920.17,-1077.71 916.67,-1067.71 913.17,-1077.71 920.17,-1077.71"/>
</g>
<!-- 12c6a41209d1420abe233a6d72acd2e9 -->
<g id="node9" class="node">
<title>12c6a41209d1420abe233a6d72acd2e9</title>
<image xlink:href="/home/ryotaro/sd/diagrams/venv/lib/python3.10/site-packages/resources/onprem/analytics/spark.png" width="101px" height="101px" preserveAspectRatio="xMinYMin meet" x="1027" y="-1256"/>
<text text-anchor="middle" x="1077.5" y="-1140.6" font-family="Sans-Serif" font-size="13.00" fill="#2d3436">Update</text>
</g>
<!-- 12c6a41209d1420abe233a6d72acd2e9&#45;&gt;b0c9fad447614384a9a890afa6db6272 -->
<g id="edge6" class="edge">
<title>12c6a41209d1420abe233a6d72acd2e9&#45;&gt;b0c9fad447614384a9a890afa6db6272</title>
<path fill="none" stroke="brown" d="M1077.5,-1274.06C1077.5,-1404.83 1077.5,-1677 1077.5,-1677 1077.5,-1677 489.16,-1677 489.16,-1677"/>
<polygon fill="brown" stroke="brown" points="489.16,-1673.5 479.16,-1677 489.16,-1680.5 489.16,-1673.5"/>
</g>
<!-- 12c6a41209d1420abe233a6d72acd2e9&#45;&gt;0ff4482f0f2c4db3b60946105ba91c73 -->
<g id="edge10" class="edge">
<title>12c6a41209d1420abe233a6d72acd2e9&#45;&gt;0ff4482f0f2c4db3b60946105ba91c73</title>
<path fill="none" stroke="#7b8894" d="M1047.2,-1136.99C1047.2,-1125.92 1047.2,-1118 1047.2,-1118 1047.2,-1118 401.67,-1118 401.67,-1118 401.67,-1118 401.67,-1077.53 401.67,-1077.53"/>
<polygon fill="#7b8894" stroke="#7b8894" points="405.17,-1077.53 401.67,-1067.53 398.17,-1077.53 405.17,-1077.53"/>
</g>
<!-- 12c6a41209d1420abe233a6d72acd2e9&#45;&gt;7b2b058e1ae64ab9ba0ab81a896626a0 -->
<g id="edge9" class="edge">
<title>12c6a41209d1420abe233a6d72acd2e9&#45;&gt;7b2b058e1ae64ab9ba0ab81a896626a0</title>
<path fill="none" stroke="#7b8894" d="M1067.4,-1136.9C1067.4,-1116.75 1067.4,-1100 1067.4,-1100 1067.4,-1100 544.33,-1100 544.33,-1100 544.33,-1100 544.33,-1077.77 544.33,-1077.77"/>
<polygon fill="#7b8894" stroke="#7b8894" points="547.83,-1077.77 544.33,-1067.77 540.83,-1077.77 547.83,-1077.77"/>
</g>
<!-- 12c6a41209d1420abe233a6d72acd2e9&#45;&gt;d36454ca6c5144f4b026710c9451f43c -->
<g id="edge11" class="edge">
<title>12c6a41209d1420abe233a6d72acd2e9&#45;&gt;d36454ca6c5144f4b026710c9451f43c</title>
<path fill="none" stroke="#7b8894" d="M1087.6,-1136.74C1087.6,-1136.74 1087.6,-1092.17 1087.6,-1092.17"/>
<polygon fill="#7b8894" stroke="#7b8894" points="1091.1,-1092.17 1087.6,-1082.17 1084.1,-1092.17 1091.1,-1092.17"/>
</g>
<!-- 12c6a41209d1420abe233a6d72acd2e9&#45;&gt;d36454ca6c5144f4b026710c9451f43c -->
<g id="edge13" class="edge">
<title>12c6a41209d1420abe233a6d72acd2e9&#45;&gt;d36454ca6c5144f4b026710c9451f43c</title>
<path fill="none" stroke="#7b8894" d="M1107.8,-1136.74C1107.8,-1136.74 1107.8,-1092.17 1107.8,-1092.17"/>
<polygon fill="#7b8894" stroke="#7b8894" points="1111.3,-1092.17 1107.8,-1082.17 1104.3,-1092.17 1111.3,-1092.17"/>
</g>
<!-- 12c6a41209d1420abe233a6d72acd2e9&#45;&gt;0240209279fd4e739d0acb41f2bdb6f5 -->
<g id="edge17" class="edge">
<title>12c6a41209d1420abe233a6d72acd2e9&#45;&gt;0240209279fd4e739d0acb41f2bdb6f5</title>
<path fill="none" stroke="#7b8894" d="M1026.87,-1182C991.41,-1182 950.33,-1182 950.33,-1182 950.33,-1182 950.33,-1077.66 950.33,-1077.66"/>
<polygon fill="#7b8894" stroke="#7b8894" points="953.83,-1077.66 950.33,-1067.66 946.83,-1077.66 953.83,-1077.66"/>
</g>
<!-- 0cc2563c6a444920952f65e344146613 -->
<g id="node13" class="node">
<title>0cc2563c6a444920952f65e344146613</title>
<image xlink:href="/home/ryotaro/sd/diagrams/venv/lib/python3.10/site-packages/resources/onprem/queue/kafka.png" width="101px" height="101px" preserveAspectRatio="xMinYMin meet" x="1171" y="-1049.5"/>
<text text-anchor="middle" x="1221.5" y="-934.1" font-family="Sans-Serif" font-size="13.00" fill="#2d3436">Updated area</text>
</g>
<!-- 12c6a41209d1420abe233a6d72acd2e9&#45;&gt;0cc2563c6a444920952f65e344146613 -->
<g id="edge18" class="edge">
<title>12c6a41209d1420abe233a6d72acd2e9&#45;&gt;0cc2563c6a444920952f65e344146613</title>
<path fill="none" stroke="#7b8894" d="M1128.27,-1205C1169.73,-1205 1221.5,-1205 1221.5,-1205 1221.5,-1205 1221.5,-1077.6 1221.5,-1077.6"/>
<polygon fill="#7b8894" stroke="#7b8894" points="1225,-1077.59 1221.5,-1067.6 1218,-1077.6 1225,-1077.59"/>
</g>
<!-- 51cce6475d304d36a1bbc501d0c86066 -->
<g id="node14" class="node">
<title>51cce6475d304d36a1bbc501d0c86066</title>
<image xlink:href="/home/ryotaro/sd/diagrams/venv/lib/python3.10/site-packages/resources/onprem/analytics/spark.png" width="101px" height="101px" preserveAspectRatio="xMinYMin meet" x="1171" y="-820"/>
<text text-anchor="middle" x="1221.5" y="-704.6" font-family="Sans-Serif" font-size="13.00" fill="#2d3436">Update</text>
</g>
<!-- 0cc2563c6a444920952f65e344146613&#45;&gt;51cce6475d304d36a1bbc501d0c86066 -->
<g id="edge19" class="edge">
<title>0cc2563c6a444920952f65e344146613&#45;&gt;51cce6475d304d36a1bbc501d0c86066</title>
<path fill="none" stroke="#7b8894" d="M1221.5,-920.45C1221.5,-920.45 1221.5,-838.09 1221.5,-838.09"/>
<polygon fill="#7b8894" stroke="#7b8894" points="1218,-920.45 1221.5,-930.45 1225,-920.45 1218,-920.45"/>
</g>
<!-- 90f316c964ad41b58df52d6dde408613 -->
<g id="node16" class="node">
<title>90f316c964ad41b58df52d6dde408613</title>
<image xlink:href="/home/ryotaro/sd/diagrams/venv/lib/python3.10/site-packages/resources/onprem/database/cassandra.png" width="101px" height="101px" preserveAspectRatio="xMinYMin meet" x="1055" y="-176"/>
<text text-anchor="middle" x="1105.5" y="-60.6" font-family="Sans-Serif" font-size="13.00" fill="#2d3436">Country</text>
</g>
<!-- 51cce6475d304d36a1bbc501d0c86066&#45;&gt;90f316c964ad41b58df52d6dde408613 -->
<g id="edge21" class="edge">
<title>51cce6475d304d36a1bbc501d0c86066&#45;&gt;90f316c964ad41b58df52d6dde408613</title>
<path fill="none" stroke="#7b8894" d="M1170.61,-769C1166.28,-769 1163.5,-769 1163.5,-769 1163.5,-769 1163.5,-125 1163.5,-125 1163.5,-125 1162.79,-125 1162.79,-125"/>
<polygon fill="#7b8894" stroke="#7b8894" points="1166.39,-121.5 1156.39,-125 1166.39,-128.5 1166.39,-121.5"/>
</g>
<!-- 3f3988276085406a99aaf33b26f8e4a0 -->
<g id="node17" class="node">
<title>3f3988276085406a99aaf33b26f8e4a0</title>
<image xlink:href="/home/ryotaro/sd/diagrams/venv/lib/python3.10/site-packages/resources/onprem/queue/kafka.png" width="101px" height="101px" preserveAspectRatio="xMinYMin meet" x="1171" y="-613.5"/>
<text text-anchor="middle" x="1221.5" y="-497.6" font-family="Sans-Serif" font-size="13.00" fill="#2d3436">ETA</text>
<text text-anchor="middle" x="1221.5" y="-483.6" font-family="Sans-Serif" font-size="13.00" fill="#2d3436">update requests</text>
</g>
<!-- 51cce6475d304d36a1bbc501d0c86066&#45;&gt;3f3988276085406a99aaf33b26f8e4a0 -->
<g id="edge24" class="edge">
<title>51cce6475d304d36a1bbc501d0c86066&#45;&gt;3f3988276085406a99aaf33b26f8e4a0</title>
<path fill="none" stroke="#7b8894" d="M1221.5,-700.74C1221.5,-700.74 1221.5,-656.17 1221.5,-656.17"/>
<polygon fill="#7b8894" stroke="#7b8894" points="1225,-656.17 1221.5,-646.17 1218,-656.17 1225,-656.17"/>
</g>
<!-- f7587382a3db416493033314a7a94dc2&#45;&gt;90f316c964ad41b58df52d6dde408613 -->
<g id="edge20" class="edge">
<title>f7587382a3db416493033314a7a94dc2&#45;&gt;90f316c964ad41b58df52d6dde408613</title>
<path fill="none" stroke="#7b8894" d="M1080.25,-273.5C1080.25,-273.5 1080.25,-204.3 1080.25,-204.3"/>
<polygon fill="#7b8894" stroke="#7b8894" points="1083.75,-204.3 1080.25,-194.3 1076.75,-204.3 1083.75,-204.3"/>
</g>
<!-- ff27c3189b3b4885a032fe7770d853d7 -->
<g id="node19" class="node">
<title>ff27c3189b3b4885a032fe7770d853d7</title>
<image xlink:href="/home/ryotaro/sd/diagrams/venv/lib/python3.10/site-packages/resources/onprem/inmemory/redis.png" width="101px" height="101px" preserveAspectRatio="xMinYMin meet" x="1199" y="-176"/>
<text text-anchor="middle" x="1249.5" y="-60.6" font-family="Sans-Serif" font-size="13.00" fill="#2d3436">Cache</text>
</g>
<!-- f7587382a3db416493033314a7a94dc2&#45;&gt;ff27c3189b3b4885a032fe7770d853d7 -->
<g id="edge27" class="edge">
<title>f7587382a3db416493033314a7a94dc2&#45;&gt;ff27c3189b3b4885a032fe7770d853d7</title>
<path fill="none" stroke="#7b8894" d="M1130.75,-273.18C1130.75,-248.2 1130.75,-226 1130.75,-226 1130.75,-226 1232.67,-226 1232.67,-226 1232.67,-226 1232.67,-204.2 1232.67,-204.2"/>
<polygon fill="#7b8894" stroke="#7b8894" points="1236.17,-204.2 1232.67,-194.2 1229.17,-204.2 1236.17,-204.2"/>
</g>
<!-- 69ec6a5f752c446e9fd3ed4c766f0985 -->
<g id="node18" class="node">
<title>69ec6a5f752c446e9fd3ed4c766f0985</title>
<image xlink:href="/home/ryotaro/sd/diagrams/venv/lib/python3.10/site-packages/resources/onprem/analytics/spark.png" width="101px" height="101px" preserveAspectRatio="xMinYMin meet" x="1199" y="-392.5"/>
<text text-anchor="middle" x="1249.5" y="-276.6" font-family="Sans-Serif" font-size="13.00" fill="#2d3436">Path and ETA</text>
<text text-anchor="middle" x="1249.5" y="-262.6" font-family="Sans-Serif" font-size="13.00" fill="#2d3436">Calculator</text>
</g>
<!-- 3f3988276085406a99aaf33b26f8e4a0&#45;&gt;69ec6a5f752c446e9fd3ed4c766f0985 -->
<g id="edge25" class="edge">
<title>3f3988276085406a99aaf33b26f8e4a0&#45;&gt;69ec6a5f752c446e9fd3ed4c766f0985</title>
<path fill="none" stroke="#7b8894" d="M1235.5,-469.76C1235.5,-469.76 1235.5,-425.16 1235.5,-425.16"/>
<polygon fill="#7b8894" stroke="#7b8894" points="1232,-469.76 1235.5,-479.76 1239,-469.76 1232,-469.76"/>
</g>
<!-- 69ec6a5f752c446e9fd3ed4c766f0985&#45;&gt;90f316c964ad41b58df52d6dde408613 -->
<g id="edge26" class="edge">
<title>69ec6a5f752c446e9fd3ed4c766f0985&#45;&gt;90f316c964ad41b58df52d6dde408613</title>
<path fill="none" stroke="#7b8894" d="M1198.73,-266C1157.27,-266 1105.5,-266 1105.5,-266 1105.5,-266 1105.5,-204.1 1105.5,-204.1"/>
<polygon fill="#7b8894" stroke="#7b8894" points="1109,-204.1 1105.5,-194.1 1102,-204.1 1109,-204.1"/>
</g>
<!-- 69ec6a5f752c446e9fd3ed4c766f0985&#45;&gt;ff27c3189b3b4885a032fe7770d853d7 -->
<g id="edge28" class="edge">
<title>69ec6a5f752c446e9fd3ed4c766f0985&#45;&gt;ff27c3189b3b4885a032fe7770d853d7</title>
<path fill="none" stroke="#7b8894" d="M1266.33,-258.91C1266.33,-258.91 1266.33,-204.31 1266.33,-204.31"/>
<polygon fill="#7b8894" stroke="#7b8894" points="1269.83,-204.31 1266.33,-194.31 1262.83,-204.31 1269.83,-204.31"/>
</g>
<!-- 068429b223774b5e899a8232d5f8c412 -->
<g id="node20" class="node">
<title>068429b223774b5e899a8232d5f8c412</title>
<image xlink:href="/home/ryotaro/sd/diagrams/venv/lib/python3.10/site-packages/resources/onprem/database/cassandra.png" width="101px" height="101px" preserveAspectRatio="xMinYMin meet" x="739" y="-1049.5"/>
<text text-anchor="middle" x="789.5" y="-934.1" font-family="Sans-Serif" font-size="13.00" fill="#2d3436">World</text>
</g>
<!-- ec8f9220c5374c6f9e2dc16531184d11 -->
<g id="node21" class="node">
<title>ec8f9220c5374c6f9e2dc16531184d11</title>
<image xlink:href="/home/ryotaro/sd/diagrams/venv/lib/python3.10/site-packages/resources/onprem/database/cassandra.png" width="101px" height="101px" preserveAspectRatio="xMinYMin meet" x="595" y="-1049.5"/>
<text text-anchor="middle" x="645.5" y="-934.1" font-family="Sans-Serif" font-size="13.00" fill="#2d3436">Country</text>
</g>
<!-- 5fc60103637f4415867607518ca15ee1 -->
<g id="node22" class="node">
<title>5fc60103637f4415867607518ca15ee1</title>
<image xlink:href="/home/ryotaro/sd/diagrams/venv/lib/python3.10/site-packages/resources/onprem/database/cassandra.png" width="101px" height="101px" preserveAspectRatio="xMinYMin meet" x="911" y="-176"/>
<text text-anchor="middle" x="961.5" y="-60.6" font-family="Sans-Serif" font-size="13.00" fill="#2d3436">World</text>
</g>
<!-- 1d4a83c7128d4ef0bca01aeedfa04b1f -->
<g id="node23" class="node">
<title>1d4a83c7128d4ef0bca01aeedfa04b1f</title>
<image xlink:href="/home/ryotaro/sd/diagrams/venv/lib/python3.10/site-packages/resources/onprem/database/cassandra.png" width="101px" height="101px" preserveAspectRatio="xMinYMin meet" x="767" y="-176"/>
<text text-anchor="middle" x="817.5" y="-60.6" font-family="Sans-Serif" font-size="13.00" fill="#2d3436">Town</text>
</g>
</g>
</svg>
